<?xml version="1.0" encoding="UTF-8" standalone="no"?>
<!-- Generator: Adobe Illustrator 22.0.1, SVG Export Plug-In . SVG Version: 6.00 Build 0)  -->

<svg
   xmlns:dc="http://purl.org/dc/elements/1.1/"
   xmlns:cc="http://creativecommons.org/ns#"
   xmlns:rdf="http://www.w3.org/1999/02/22-rdf-syntax-ns#"
   xmlns:svg="http://www.w3.org/2000/svg"
   xmlns="http://www.w3.org/2000/svg"
   xmlns:sodipodi="http://sodipodi.sourceforge.net/DTD/sodipodi-0.dtd"
   xmlns:inkscape="http://www.inkscape.org/namespaces/inkscape"
   version="1.1"
   id="Layer_1"
   x="0px"
   y="0px"
   viewBox="0 0 12 12"
   style="enable-background:new 0 0 12 12;"
   xml:space="preserve"
   sodipodi:docname="external-link-icon2.svg"
   inkscape:version="0.92.4 5da689c313, 2019-01-14"><metadata
   id="metadata15"><rdf:RDF><cc:Work
       rdf:about=""><dc:format>image/svg+xml</dc:format><dc:type
         rdf:resource="http://purl.org/dc/dcmitype/StillImage" /><dc:title></dc:title></cc:Work></rdf:RDF></metadata><defs
   id="defs13" /><sodipodi:namedview
   pagecolor="#ffffff"
   bordercolor="#666666"
   borderopacity="1"
   objecttolerance="10"
   gridtolerance="10"
   guidetolerance="10"
   inkscape:pageopacity="0"
   inkscape:pageshadow="2"
   inkscape:window-width="1920"
   inkscape:window-height="1180"
   id="namedview11"
   showgrid="false"
   inkscape:zoom="19.666667"
   inkscape:cx="-3.1779661"
   inkscape:cy="6"
   inkscape:window-x="0"
   inkscape:window-y="20"
   inkscape:window-maximized="0"
   inkscape:current-layer="Layer_1" />
<style
   type="text/css"
   id="style2">
	.st0{fill:#3B3B3B;}
</style>
<g
   transform="translate(0,-4)"
   id="g8">
	<path
   class="st0"
   d="M2,7C0.9,7,0,7.9,0,9v5c0,1.1,0.9,2,2,2h5c1.1,0,2-0.9,2-2v-3H7v3H2V9h3V7H2z"
   id="path4" />
	<path
   class="st0"
   d="M6,4v2h2.6l-5,4.9l1.4,1.4l4.9-5V10h2V4H6z"
   id="path6" />
</g>
<path
   style="opacity:0.6;fill:#eeeeee;fill-opacity:1;stroke:#000000;stroke-width:0.05092753;stroke-miterlimit:4;stroke-dasharray:none;stroke-opacity:1"
   d="M 1.430663,11.883114 C 1.2722734,11.831898 1.0619776,11.740116 0.96333895,11.679154 0.67533,11.501154 0.28696964,11.038723 0.15867453,10.721017 0.04093144,10.429441 0.04064625,10.422826 0.02591471,7.6414466 0.0131737,5.235887 0.02213789,4.8111954 0.09135738,4.5410054 0.24693329,3.9337332 0.617583,3.4836953 1.1847458,3.2134279 L 1.5152542,3.0559322 3.2567797,3.0407379 4.9983051,3.0255436 v 0.9685841 0.9685842 h -1.5 -1.5 v 2.542852 2.5428521 l 2.5042373,-0.01319 2.5042373,-0.01319 0.01348,-1.4872882 0.01348,-1.4872882 H 7.9990731 8.964407 v 1.6445822 c 0,1.4952942 -0.00896,1.6706132 -0.09866,1.9313432 -0.1911579,0.555611 -0.532351,0.923751 -1.1045995,1.191837 l -0.2967401,0.139017 -2.8728814,0.011 c -2.6637896,0.0102 -2.893841,0.0042 -3.1608624,-0.08212 z"
   id="path4536"
   inkscape:connector-curvature="0" /><path
   style="opacity:0.6;fill:#eeeeee;fill-opacity:1;stroke:#000000;stroke-width:0.05092753;stroke-miterlimit:4;stroke-dasharray:none;stroke-opacity:1"
   d="M 4.3238426,7.5679373 C 3.9676783,7.2109805 3.6762712,6.9049851 3.6762712,6.8879471 c 0,-0.017038 1.1040254,-1.1112605 2.4533898,-2.4316049 C 7.4790254,3.1359975 8.590678,2.0347897 8.6,2.0092137 8.6099628,1.9818797 8.0807466,1.9627119 7.3161017,1.9627119 H 6.0152542 V 0.99661017 0.03050847 H 8.9389831 11.862712 V 3.0050847 5.979661 H 10.89661 9.9305085 L 9.9284949,4.6194915 9.9264814,3.259322 7.475107,5.7401629 C 6.1268509,7.1046254 5.0119615,8.2200915 4.997575,8.2189764 4.9831884,8.2178629 4.6800105,7.9248936 4.3238462,7.5679373 Z"
   id="path4538"
   inkscape:connector-curvature="0" /></svg>